<?xml version="1.0" encoding="UTF-8" standalone="no"?>
<svg
   version="1.1"
   width="612"
   height="792"
   id="svg122"
   viewBox="0 0 612 792"
   sodipodi:docname="fig1.svg"
   inkscape:version="1.1.2 (1:1.1+202202050852+0a00cf5339)"
   inkscape:export-filename="/home/steven/Private/platefin/docs/fig1.png"
   inkscape:export-xdpi="96"
   inkscape:export-ydpi="96"
   xmlns:inkscape="http://www.inkscape.org/namespaces/inkscape"
   xmlns:sodipodi="http://sodipodi.sourceforge.net/DTD/sodipodi-0.dtd"
   xmlns="http://www.w3.org/2000/svg"
   xmlns:svg="http://www.w3.org/2000/svg">
  <defs
     id="defs126" />
  <sodipodi:namedview
     id="namedview124"
     pagecolor="#eeeeee"
     bordercolor="#666666"
     borderopacity="1.0"
     inkscape:pageshadow="2"
     inkscape:pageopacity="1"
     inkscape:pagecheckerboard="false"
     showgrid="false"
     inkscape:zoom="0.86111111"
     inkscape:cx="305.41936"
     inkscape:cy="396"
     inkscape:window-width="1474"
     inkscape:window-height="881"
     inkscape:window-x="484"
     inkscape:window-y="154"
     inkscape:window-maximized="0"
     inkscape:current-layer="svg122"
     borderlayer="false"
     inkscape:showpageshadow="true" />
  <path
     d="m 266.9187,154.9576 -108.504,64.296 m 111.024,-63.792 -2.52,-0.504 m 2.16,22.464 -36.144,21.384 m 0,-16.992 -36.144,21.456 m 229.68,-16.704 -108.504,64.224 m 108.504,-64.224 v 345.6 m 2.448,-345.168 -2.448,-0.432 m -193.536,12.24 v 10.296 m -36.144,-5.832 v 27.216 m 72.288,-25.848 v -27.216 m 0,27.216 0.072,1.152 m -0.072,-1.152 -23.256,13.752 m 23.616,-13.176 v -49.752 m 0,49.752 v 1.728 m -0.288,-1.152 0.288,1.224 m -0.288,-1.224 -21.744,12.888 m 22.032,-11.664 0.432,1.152 m -0.432,-1.152 -20.304,12.024 m 20.736,-10.872 0.648,1.08 m -0.648,-1.08 -18.864,11.232 m -18.072,-10.296 v -27.288 m 0,27.288 0.072,1.08 m 37.512,-0.936 0.792,1.008 m -0.792,-1.008 -17.712,10.512 m -19.8,-9.576 0.288,1.224 m 38.016,-1.152 0.864,0.864 m -0.864,-0.864 -16.632,9.864 m 17.496,-9 1.008,0.648 m -1.008,-0.648 -15.768,9.36 m -23.112,-9.072 0.432,1.224 m 39.456,-0.864 1.08,0.576 m -1.08,-0.576 -15.12,9 m 16.2,-8.424 1.08,0.288 m -1.08,-0.288 -14.76,8.712 m -25.776,-8.424 0.648,1.08 m 40.968,-1.08 -14.688,8.64 m -26.28,-7.56 0.792,0.936 0.864,0.864 1.008,0.72 1.08,0.576 1.08,0.288 -36.144,21.384 m -44.64,-19.224 2.592,0.504 108.432,-64.296 m -108.432,64.296 v 48.744 m 35.784,-48.24 -35.784,21.24 m 35.784,-11.016 36.144,-21.384 m -36.072,22.536 36.144,-21.456 m -36.144,21.456 -0.072,-1.152 m 0.36,2.376 36.144,-21.456 m -36.144,21.456 -0.288,-1.224 m 0.72,2.376 36.144,-21.384 m -36.144,21.384 -0.432,-1.152 m 1.08,2.232 36.144,-21.384 m -36.144,21.384 -0.648,-1.08 m 1.44,2.088 36.144,-21.456 m -36.144,21.456 -0.792,-1.008 m 1.656,1.872 36.144,-21.456 m -36.144,21.456 -0.864,-0.864 m 1.872,1.512 36.144,-21.384 m -36.144,21.384 -1.008,-0.648 m 2.088,1.224 36.144,-21.384 m -36.144,21.384 -1.08,-0.576 m 2.16,0.864 -1.08,-0.288 m 1.08,0.288 143.856,28.44 m 72.288,-25.848 -143.856,-28.44 m 143.856,28.44 -29.88,17.712 m 30.96,-17.424 -1.08,-0.288 m 1.08,0.288 -30.96,18.36 m -228.312,-18.216 -0.36,0.144 v 27.216 m 260.712,-26.928 -1.08,-0.576 m 1.08,0.576 -32.04,18.936 m 32.976,-18.288 -0.936,-0.648 m 0.936,0.648 -32.976,19.584 m 33.912,-18.72 -0.936,-0.864 m 0.936,0.864 -33.912,20.088 m 34.704,-19.08 -0.792,-1.008 m 0.792,1.008 -34.704,20.52 m -6.264,-19.44 -143.856,-28.44 m 185.4,28.44 -0.576,-1.08 m 0.576,1.08 -35.28,20.88 m -5.184,-20.592 -1.08,-0.288 m 2.16,0.792 -1.08,-0.504 m 40.968,0.936 -0.504,-1.224 m 0.504,1.224 -35.784,21.096 m -3.168,-20.808 -0.936,-0.72 m -188.424,1.152 v -27.216 m 0,27.216 0.072,1.152 m 190.224,-0.792 -0.936,-0.792 m 39.24,0.864 -0.288,-1.152 m -228.24,1.872 0.288,1.224 m 190.728,-0.936 -0.792,-1.08 m 38.376,1.224 -0.072,-1.152 m 0.072,1.152 -36.144,21.456 m -192.168,-20.664 0.432,1.152 m 190.872,-1.008 -0.576,-1.08 m -69.912,1.872 2.52,0.432 m -54.936,-0.432 -6.84,4.032 m 6.768,-4.032 -6.768,4.032 m 7.2,-3.96 -6.84,4.104 m -20.952,-4.032 -1.08,0.072 m 1.08,-0.072 -14.544,8.568 m -25.992,-8.496 0.648,1.08 m 38.808,-1.08 -1.008,0.288 m 1.008,-0.288 -14.112,8.352 m 43.632,-8.352 -6.84,4.104 m -20.52,-4.032 -1.08,-0.144 m 1.08,0.144 -14.688,8.64 m 164.448,-8.568 -0.504,-1.152 m -120.888,1.224 -6.912,4.032 m 59.832,-4.032 108.432,-64.224 m -108.432,64.224 v 345.672 m -84.456,-345.6 -0.864,0.576 m 0.864,-0.576 -13.464,7.992 m 12.6,-7.416 -12.6,7.416 m 12.528,-7.416 z m -36.864,0.216 0.792,1.008 m 190.224,-0.792 -0.288,-1.152 m -189.936,1.944 0.864,0.864 m 189.432,-0.432 -0.072,-1.224 m 0.072,1.224 -36.144,21.456 m -153.288,-21.024 1.008,0.648 1.08,0.576 1.08,0.288 -36.144,21.384 m 180,-9.936 36.144,-21.384 m -36.144,21.384 1.08,0.288 36.144,-21.384 m -36.144,21.384 1.08,0.576 36.144,-21.456 m -36.144,21.456 0.936,0.72 36.144,-21.456 m -36.144,21.456 0.936,0.792 m -189.936,-0.792 v 0.144 m -0.36,0.216 36.144,-21.384 m 154.152,21.816 36.144,-21.456 m -36.144,21.456 0.792,1.008 m 37.512,-1.008 36.144,-21.384 m -36.144,21.384 0.072,1.224 m 36.144,-1.008 v -20.448 m -264.744,20.952 36.144,-21.384 m -36.144,21.384 -0.072,-1.152 m 191.088,1.44 36.144,-21.384 m -36.144,21.384 0.576,1.08 m 37.008,-0.864 v 20.376 m 36.072,-20.232 0.072,-1.152 m -264.456,1.656 v 43.056 m 0,-42.984 36.144,-21.384 m -36.144,21.384 -0.288,-1.224 m 191.592,1.368 36.144,-21.384 m -36.144,21.384 0.504,1.152 m 72.288,-0.792 0.288,-1.08 m -263.952,1.728 36.144,-21.384 m -36.144,21.384 -0.432,-1.152 m 191.808,1.296 36.144,-21.384 m -36.144,21.384 0.288,1.152 m 71.496,-1.008 0.504,-0.936 m -263.016,1.8 36.144,-21.456 m -36.144,21.456 -0.648,-1.152 m 191.592,1.152 -113.832,-22.464 m 184.824,22.464 0.576,-0.864 m -71.496,1.008 36.144,-21.384 m -36.144,21.384 0.072,1.296 m 36.144,-1.08 v -20.376 m 33.912,20.736 0.792,-0.72 m -261.144,0.936 36.144,-21.384 m -36.144,21.384 -0.792,-0.936 m 191.088,1.44 v 20.376 m 36.072,-20.232 0.072,-1.224 m -225.576,1.44 36.144,-21.384 m -36.144,21.384 -0.864,-0.864 m 1.872,1.584 36.144,-21.456 m -36.144,21.456 -1.008,-0.72 m 225.216,0.864 0.288,-1.08 m -0.288,1.08 -35.784,21.096 m -187.344,-20.736 36.144,-21.384 m -36.144,21.384 -1.08,-0.504 m 2.16,0.792 -1.08,-0.288 m 1.08,0.288 143.856,28.512 m 77.688,-28.224 0.504,-0.936 m -0.504,0.936 -35.28,20.88 m 34.704,-20.016 0.576,-0.864 m -0.576,0.864 -34.704,20.52 m 33.912,-19.872 0.792,-0.648 m -0.792,0.648 -33.912,20.088 m -156.384,-15.984 v 6.048 m 150.12,-4.896 -143.856,-28.44 m 144.936,28.728 -1.08,-0.288 m 2.16,0.792 -1.08,-0.504 m 2.016,1.224 -0.936,-0.72 m 1.872,1.584 -0.936,-0.864 m -133.488,1.224 -6.84,4.104 m 8.424,-3.816 -6.84,4.104 m 140.472,-3.744 -0.792,-1.008 m -131.112,1.008 -6.84,4.104 m 8.64,-3.744 -6.84,4.104 m 8.712,-3.744 -6.84,4.104 m 135.648,-3.744 -0.576,-1.08 m -126.432,1.152 -6.768,4.032 m 8.568,-3.672 -6.84,4.032 m -23.472,-4.032 v 1.008 m 31.968,-0.72 -6.84,4.104 m -19.944,-3.888 -1.08,0.144 m 29.232,-0.072 -6.768,4.032 m -22.464,-3.96 -1.008,0.288 m 3.168,-0.288 -1.08,-0.144 m 1.08,0.144 -36.144,21.384 m 185.904,-21.312 -0.504,-1.152 m -120.888,1.224 -6.912,4.032 m -24.624,-3.888 -0.864,0.504 m -2.232,-0.432 v 0.864 m 2.16,-0.432 z m -2.16,0.432 v 0.792 m 156.312,-0.72 -0.288,-1.224 m 36.504,1.368 36.144,-21.384 m -36.144,21.384 -0.072,1.224 m -192.456,-0.648 v 0.072 m 156.384,0.36 -0.072,-1.152 m 0.072,1.152 -36.144,21.456 m 72.216,-21.24 36.144,-21.456 m -36.144,21.456 -0.288,1.08 m 0,-0.288 -5.904,3.6 m 5.904,-3.312 36.144,-21.456 m -36.144,21.456 -0.504,0.936 m -18.36,-0.216 -6.552,-1.296 m 25.056,1.296 -4.464,2.592 m 4.32,-2.376 36.144,-21.456 m -36.144,21.456 -0.576,0.864 m 0,-0.144 -2.664,1.656 m 2.664,-1.512 36.144,-21.456 m -36.144,21.456 -0.792,0.648 m -33.912,-0.288 36.144,-21.456 m -36.144,21.456 -0.072,1.152 m 34.056,-0.936 -1.008,0.576 m 0.936,-0.504 36.144,-21.384 m -36.144,21.384 -0.936,0.504 -0.936,0.36 m -2.16,0 -12.96,-2.592 m 15.12,2.592 h -1.08 m -31.032,0 36.144,-21.384 m -5.112,21.384 h -1.08 m -42.768,3.024 z m 34.92,0.792 -18.504,-3.672 m -45.936,8.712 36.144,-21.456 m -36.144,21.456 1.08,0.288 36.144,-21.456 m -36.144,21.456 1.08,0.504 36.144,-21.456 m -36.144,21.456 0.936,0.72 36.144,-21.456 m -36.144,21.456 0.936,0.792 36.144,-21.384 m -36.144,21.384 0.72,1.008 36.216,-21.384 m -36.216,21.384 0.648,1.152 m 103.032,-0.792 -43.992,-8.712 m 43.992,8.712 -29.88,17.712 m 30.96,-17.424 -1.08,-0.288 m 1.08,0.288 -30.96,18.36 m -73.152,-17.856 36.144,-21.456 m -36.144,21.456 0.504,1.08 m 104.688,-1.08 -1.08,-0.504 m 1.08,0.504 -32.04,19.008 m 32.976,-18.288 -0.936,-0.72 m 0.936,0.72 -32.976,19.584 m -223.488,-19.368 36.144,-21.456 m -36.144,21.456 1.08,0.072 m -1.368,-0.072 -4.104,2.376 m 5.184,-2.304 -5.616,3.312 m 3.744,-3.312 36.144,-21.384 m -36.144,21.384 1.08,-0.072 m 1.08,0.072 143.856,28.44 m -146.376,-28.368 -2.304,1.44 m 154.584,-1.44 36.144,-21.384 m -36.144,21.384 0.288,1.224 m -149.112,-1.152 -7.128,4.248 m 3.024,-4.104 36.144,-21.384 m -36.144,21.384 1.008,-0.288 m 4.464,0.432 -8.208,4.896 m 262.224,-4.824 -0.936,-0.792 m 0.936,0.792 -33.912,20.16 m -226.44,-19.872 36.144,-21.384 m -36.144,21.384 0.864,-0.504 m 153.144,0.864 -113.832,-22.536 m 113.904,22.68 36.144,-21.384 m -36.144,21.384 0.072,1.224 m 36.144,-1.008 v -20.448 m -191.088,20.448 0.792,-0.72 m 261.144,0.792 -0.792,-1.08 m 0.792,1.08 -34.704,20.52 m -227.88,-19.8 0.648,-0.792 m 154.944,1.008 v 20.376 m 66.024,-20.304 -29.88,-5.904 m 71.424,5.976 -0.576,-1.08 m 0.576,1.08 -35.28,20.88 m -36.216,-20.88 0.072,-1.152 m 30.96,1.44 -1.08,-0.36 m -222.048,0.72 0.432,-1.008 m 223.776,1.08 -1.08,-0.432 m -31.32,0.792 0.288,-1.08 m 72,1.08 -0.504,-1.08 m 0.504,1.08 -35.784,21.24 m -3.168,-20.808 -0.936,-0.792 m -224.208,0.864 v 0.288 m -0.288,-0.144 0.288,-1.08 m 0,1.224 v 21.096 m 191.304,-20.952 0.504,-0.936 m 34.272,1.224 -0.936,-0.792 m 39.24,0.792 -0.288,-1.224 m -264.096,1.584 -0.36,0.288 m 191.088,-0.072 0.576,-0.864 m -157.32,0.936 -34.344,20.304 m 0,-20.304 0.072,-1.224 m -0.072,1.224 v 20.304 m 35.928,-20.016 -35.856,21.24 m 36.144,-21.168 0.288,0.936 m 190.728,-0.936 -0.792,-1.008 m 38.376,1.224 -0.072,-1.224 m 0.072,1.224 -36.144,21.456 m -38.376,-21.384 0.792,-0.72 m -154.584,1.368 0.432,1.224 m 190.872,-1.008 -0.576,-1.152 m -190.296,2.16 0.648,1.08 m 190.728,-1.008 -0.504,-1.08 m -190.224,2.088 0.792,0.936 m 190.224,-0.72 -0.288,-1.224 m -189.936,1.944 0.864,0.864 m 189.432,-0.36 -0.072,-1.224 m 0.072,1.224 -36.144,21.384 m -153.288,-21.024 1.008,0.72 1.08,0.504 1.08,0.36 m 26.28,-0.288 -6.84,4.104 m 6.912,-4.104 -6.84,4.104 m 7.2,-3.96 -6.84,4.032 m 7.488,-3.888 -6.84,4.032 m -20.52,-4.032 -36.144,21.384 m 64.512,-21.24 -6.912,4.032 m 109.44,4.68 -6.552,-1.296 m -10.368,2.736 36.144,-21.384 m -36.144,21.384 -0.072,1.152 m 29.952,0 36.144,-21.456 m -36.144,21.456 -12.96,-2.592 m 12.96,2.592 1.08,0.288 m -31.032,-0.288 36.144,-21.384 m -36.144,21.384 -0.288,1.08 m 31.32,-0.792 36.144,-21.384 m -36.144,21.384 1.08,0.504 36.144,-21.456 m -36.144,21.456 0.936,0.72 m -33.336,-0.648 -5.904,3.528 m 5.904,-3.312 36.144,-21.384 m -36.144,21.384 -0.504,1.008 m 33.84,-0.576 36.144,-21.384 m -36.144,21.384 0.936,0.792 m -189.936,-0.72 v 0.072 m 155.304,0.216 -4.464,2.592 m 4.32,-2.376 36.144,-21.456 m -36.144,21.456 -0.648,0.864 m 35.424,-0.648 36.144,-21.384 m -36.144,21.384 0.792,1.008 m 37.512,-0.936 36.144,-21.456 m -36.144,21.456 0.072,1.224 m 36.144,-1.08 v -20.376 m -109.872,20.664 -2.664,1.656 m 2.592,-1.512 36.216,-21.456 m -36.216,21.456 -0.72,0.648 m -154.08,-0.504 -0.072,-1.224 m 191.088,1.44 36.144,-21.384 m -36.144,21.384 0.576,1.152 m -37.44,-0.936 -1.008,0.576 m 75.456,-0.576 v -16.92 m 0,16.992 v 3.384 m 0,-3.384 v 20.376 m -74.52,-20.376 36.144,-21.384 m -36.144,21.384 -0.936,0.504 m 111.528,-0.432 0.072,-1.152 m -86.4,1.296 -18.504,-3.672 m -6.696,3.96 -0.936,0.36 m -151.92,-0.216 v 42.984 m 0,-42.912 36.144,-21.456 m -36.144,21.456 -0.288,-1.224 m 152.208,1.368 h -1.08 m 40.464,0 36.144,-21.384 m -36.144,21.384 0.504,1.08 m -40.968,-1.08 -1.08,-0.072 m 114.336,0.432 0.288,-1.152 m -263.952,1.8 36.144,-21.384 m -36.144,21.384 -0.432,-1.152 m 191.808,1.224 36.144,-21.384 m -36.144,21.384 0.288,1.224 m 71.496,-1.008 0.504,-0.936 m -263.016,1.728 36.144,-21.384 m -36.144,21.384 -0.648,-1.08 m 191.592,1.152 -13.968,-2.808 m 84.96,2.808 0.576,-0.864 m -71.496,1.008 36.144,-21.384 m -36.144,21.384 0.072,1.224 m 70.056,-0.648 0.792,-0.72 m -261.144,0.936 36.144,-21.456 m -36.144,21.456 -0.792,-1.008 m 191.088,1.44 v 20.376 m 36.072,-20.232 0.072,-1.152 m -225.576,1.44 36.144,-21.456 m -36.144,21.456 -0.864,-0.864 m 1.872,1.512 36.144,-21.384 m -36.144,21.384 -1.008,-0.648 m 225.216,0.792 0.288,-1.08 m -0.288,1.08 -35.784,21.168 m -187.344,-20.808 36.144,-21.384 m -36.144,21.384 -1.08,-0.504 m 2.16,0.864 -1.08,-0.36 m 1.08,0.36 143.856,28.44 m 77.688,-28.152 0.504,-1.008 m -0.504,1.008 -35.28,20.88 m 34.704,-20.016 0.576,-0.864 m -0.576,0.864 -34.704,20.52 m 33.912,-19.872 0.792,-0.648 m -0.792,0.648 -33.912,20.088 m -156.384,-15.984 v 5.976 m 150.12,-4.824 -143.856,-28.44 m 144.936,28.728 -1.08,-0.288 m 2.16,0.792 -1.08,-0.504 m 2.016,1.152 -0.936,-0.648 m 1.872,1.512 -0.936,-0.864 m -133.488,1.296 -6.84,4.032 m 8.424,-3.744 -6.84,4.032 m 140.472,-3.744 -0.792,-1.008 m -131.112,1.08 -6.84,4.032 m 8.64,-3.672 -6.84,4.032 m 8.712,-3.672 -6.84,4.032 m 135.648,-3.744 -0.576,-1.08 m -126.432,1.152 -6.768,4.032 m 8.568,-3.672 -6.84,4.032 m -23.472,-4.032 v 1.08 m 31.968,-0.72 -6.84,4.032 m -19.944,-3.816 -1.08,0.072 m 29.232,0 -6.768,4.032 m -22.464,-4.032 -1.008,0.288 m 3.168,-0.216 -1.08,-0.144 m 1.08,0.144 -36.144,21.384 m 185.904,-21.384 -0.504,-1.152 m -120.888,1.224 -6.912,4.104 m -24.624,-3.96 -0.864,0.504 m -2.232,-0.36 v 0.864 m 2.16,-0.432 z m -2.16,0.432 v 0.792 m 156.312,-0.792 -0.288,-1.224 m 36.504,1.44 36.144,-21.456 m -36.144,21.456 -0.072,1.152 m -192.456,-0.576 v 0.072 m 156.384,0.36 -0.072,-1.224 m 0.072,1.224 -36.144,21.384 m 72.216,-21.24 36.144,-21.456 m -36.144,21.456 -0.288,1.08 m 0,-0.216 -5.904,3.528 m 5.904,-3.312 36.144,-21.384 m -36.144,21.384 -0.504,1.008 m -18.36,-0.288 -6.552,-1.296 m 25.056,1.296 -4.464,2.664 m 4.32,-2.376 36.144,-21.456 m -36.144,21.456 -0.576,0.864 m 0.072,-0.216 -2.736,1.656 m 2.664,-1.44 36.144,-21.456 m -36.144,21.456 -0.792,0.648 m -33.912,-0.36 36.144,-21.384 m -36.144,21.384 -0.072,1.152 m 34.056,-0.936 -1.008,0.576 m 0.936,-0.432 36.144,-21.384 m -36.144,21.384 -0.936,0.432 -0.936,0.36 m -2.16,0 -12.96,-2.592 m 15.12,2.592 -1.08,0.072 m -31.032,-0.072 36.144,-21.384 m -5.112,21.456 -1.08,-0.072 m -42.768,3.096 z m 34.92,0.72 -18.504,-3.6 m -45.936,8.64 36.144,-21.384 m -36.144,21.384 1.08,0.288 36.144,-21.384 m -36.144,21.384 1.08,0.504 36.144,-21.384 m -36.144,21.384 0.936,0.72 36.144,-21.456 m -36.144,21.456 0.936,0.864 36.144,-21.456 m -36.144,21.456 0.72,0.936 36.216,-21.384 m -36.216,21.384 0.648,1.152 m 103.032,-0.792 -43.992,-8.712 m 43.992,8.712 -29.88,17.568 m 30.96,-17.208 -1.08,-0.36 m 1.08,0.36 -30.96,18.144 m -73.152,-17.712 36.144,-21.456 m -36.144,21.456 0.504,1.152 m 104.688,-1.152 -1.08,-0.432 m 1.08,0.432 -32.04,18.864 m 32.976,-18.144 -0.936,-0.72 m 0.936,0.72 -32.976,19.44 m -223.488,-19.224 36.144,-21.384 m -36.144,21.384 1.08,0.144 m -1.368,-0.072 -4.104,2.376 m 5.184,-2.304 -5.616,3.312 m 3.744,-3.312 36.144,-21.456 m -36.144,21.456 1.08,-0.144 m 1.08,0.144 143.856,28.296 m -146.376,-28.296 -2.304,1.44 m 154.584,-1.368 36.144,-21.456 m -36.144,21.456 0.288,1.224 m -149.112,-1.152 -7.128,4.248 m 3.024,-4.104 36.144,-21.456 m -36.144,21.456 1.008,-0.288 m 4.464,0.432 -8.208,4.896 m 262.224,-4.824 -0.936,-0.864 m 0.936,0.864 -33.912,20.016 m -226.44,-19.8 36.144,-21.384 m -36.144,21.384 0.864,-0.432 m 153.144,0.792 -113.832,-22.464 m 113.904,22.68 36.144,-21.456 m -36.144,21.456 0.072,1.152 m 36.144,-1.008 v -20.376 m -191.088,20.376 0.792,-0.72 m 261.144,0.792 -0.792,-1.008 m 0.792,1.008 -34.704,20.448 m -227.88,-19.656 0.648,-0.864 m 154.944,1.008 v 20.304 m 66.024,-20.16 -29.88,-5.904 m 71.424,5.904 -0.576,-1.08 m 0.576,1.08 -35.28,20.808 m -36.216,-20.808 0.072,-1.152 m 30.96,1.44 -1.08,-0.288 m -222.048,0.72 0.432,-1.008 m 223.776,1.08 -1.08,-0.504 m -31.32,0.792 0.288,-1.08 m 72,1.152 -0.504,-1.152 m 0.504,1.152 -35.784,21.096 m -3.168,-20.808 -0.936,-0.648 m -224.208,0.792 v 0.288 m -0.288,-0.072 0.288,-1.08 m 0,1.152 v 21.096 m 191.304,-20.88 0.504,-1.008 m 34.272,1.296 -0.936,-0.936 m 39.24,0.936 -0.288,-1.224 m -264.096,1.584 -0.36,0.216 m 191.088,0 0.576,-0.864 m -157.32,0.864 -33.984,20.016 m -0.36,-20.016 0.072,-1.152 m -0.072,1.152 v 20.232 m 35.928,-19.944 -35.856,21.168 m 36.144,-21.096 0.288,1.008 m 190.728,-1.008 -0.792,-0.936 m 38.376,1.224 -0.072,-1.224 m 0.072,1.224 -36.144,21.24 m -38.376,-21.24 0.792,-0.648 m -154.584,1.368 0.432,1.152 m 190.872,-1.08 -0.576,-1.08 m -190.296,2.16 0.648,1.08 m 190.728,-1.008 -0.504,-1.152 m -190.224,2.16 0.792,1.008 m 190.224,-0.792 -0.288,-1.224 m -189.936,2.016 0.864,0.864 m 189.432,-0.432 -0.072,-1.224 m 0.072,1.224 -36.144,21.312 m -153.288,-20.88 1.008,0.72 1.08,0.432 1.08,0.36 -36.144,21.312 m 190.44,-14.04 z m -23.4,1.512 -6.552,-1.296 m 42.12,2.16 z m -52.488,0.576 36.144,-21.312 m -36.144,21.312 -0.072,1.152 m 29.952,0 36.144,-21.312 m -36.144,21.312 -12.96,-2.592 m 12.96,2.592 1.08,0.288 m -31.032,-0.288 36.144,-21.312 m -36.144,21.312 -0.288,1.08 m 31.32,-0.792 36.144,-21.312 m -36.144,21.312 1.08,0.432 36.144,-21.24 m -36.144,21.24 0.936,0.792 m -33.336,-0.648 -5.904,3.528 m 5.904,-3.312 36.144,-21.312 m -36.144,21.312 -0.504,0.936 m 33.84,-0.504 36.144,-21.384 m -36.144,21.384 0.936,0.792 m -189.936,-0.648 z m 155.304,0.216 -4.464,2.592 m -151.2,-2.592 0.36,-0.216 m 155.16,0.36 36.144,-21.24 m -36.144,21.24 -0.648,0.936 m 35.424,-0.648 36.144,-21.24 m -36.144,21.24 0.792,1.008 m 37.512,-1.008 36.144,-21.24 m -36.144,21.24 0.072,1.224 m 36.144,-1.008 v -20.232 m -109.8,20.448 -2.736,1.656 m 2.592,-1.44 36.216,-21.312 m -36.216,21.312 -0.72,0.648 m -154.08,-0.504 -0.072,-1.224 m 191.088,1.44 36.144,-21.312 m -36.144,21.312 0.576,1.152 m -37.44,-1.008 -1.008,0.576 m 75.456,-0.504 v 20.448 m -74.52,-20.376 36.144,-21.312 m -36.144,21.312 -0.936,0.432 m 111.528,-0.36 0.072,-1.152 m -86.4,1.296 -18.504,-3.672 m -6.696,3.888 -0.936,0.36 m -151.92,-0.216 v 43.056 m 0,-42.984 36.144,-21.24 m -36.144,21.24 -0.288,-1.152 m 152.208,1.296 -1.08,0.072 m 40.464,0 36.144,-21.384 m -36.144,21.384 0.504,1.08 m -40.968,-1.08 -1.08,-0.072 m 114.336,0.36 0.288,-1.08 m -263.952,1.8 36.144,-21.312 m -36.144,21.312 -0.432,-1.224 m 191.808,1.296 36.144,-21.312 m -36.144,21.312 0.288,1.224 m 71.496,-1.008 0.504,-1.008 m -263.016,1.8 36.144,-21.312 m -36.144,21.312 -0.648,-1.08 m 191.592,1.152 -13.968,-2.808 m 84.96,2.808 0.576,-0.864 m -71.496,1.008 36.144,-21.312 m -36.144,21.312 0.072,1.224 m 36.144,-1.008 v -20.304 m 33.912,20.592 0.792,-0.648 m -261.144,0.864 36.144,-21.24 m -36.144,21.24 -0.792,-0.936 m 191.088,1.44 v 20.376 m 36.072,-20.232 0.072,-1.152 m -225.576,1.368 36.144,-21.24 m -36.144,21.24 -0.864,-0.864 m 1.872,1.584 36.144,-21.24 m -36.144,21.24 -1.008,-0.72 m 225.216,0.864 0.288,-1.08 m -0.288,1.08 -35.784,21.168 m -187.344,-20.808 36.144,-21.312 m -36.144,21.312 -1.08,-0.504 m 2.16,0.864 -1.08,-0.36 m 1.08,0.36 143.856,28.44 m 77.688,-28.224 0.504,-0.936 m -0.504,0.936 -35.28,20.952 m 34.704,-20.088 0.576,-0.864 m -0.576,0.864 -34.704,20.52 m 33.912,-19.8 0.792,-0.72 m -0.792,0.72 -33.912,20.016 m 31.248,-19.224 z m -187.632,3.312 v 5.976 m 150.12,-4.896 -143.856,-28.296 m 144.936,28.656 -1.08,-0.36 m 2.16,0.792 -1.08,-0.432 m 2.016,1.152 -0.936,-0.72 m 1.872,1.584 -0.936,-0.864 m 1.728,1.872 -0.792,-1.008 m 1.368,2.088 -0.576,-1.08 m -154.944,1.512 v 1.008 m 5.184,-0.504 -1.08,0.144 -1.008,0.288 m 3.168,-0.288 -1.08,-0.144 m 1.08,0.144 -36.144,21.456 m 185.904,-21.384 -0.504,-1.152 m -152.424,1.368 -0.864,0.504 m -2.232,-0.432 v 0.864 m 2.16,-0.36 z m -2.16,0.36 v 0.864 m 156.312,-0.792 -0.288,-1.224 m 36.504,1.44 36.144,-21.456 m -36.144,21.456 -0.072,1.152 m -192.456,-0.576 v 0.072 m 156.384,0.36 -0.072,-1.224 m 0.072,1.224 -36.144,21.384 m 72.216,-21.24 36.144,-21.456 m -36.144,21.456 -0.288,1.08 m 0,-0.216 -5.904,3.528 m 5.904,-3.312 36.144,-21.456 m -36.144,21.456 -0.504,0.936 m -18.36,-0.216 -6.552,-1.296 m 25.056,1.296 -4.464,2.664 m 4.32,-2.448 36.144,-21.384 m -36.144,21.384 -0.576,0.864 m 0.072,-0.144 -2.736,1.656 m 2.664,-1.512 36.144,-21.384 m -36.144,21.384 -0.792,0.72 m -33.912,-0.36 36.144,-21.384 m -36.144,21.384 -0.072,1.152 m 34.056,-0.936 -1.008,0.576 m 0.936,-0.432 36.144,-21.456 m -36.144,21.456 -0.936,0.432 -0.936,0.36 m -2.16,0 -12.96,-2.592 m 15.12,2.592 -1.08,0.072 m -31.032,-0.072 36.144,-21.384 m -5.112,21.456 -1.08,-0.072 m -42.768,3.096 z m 34.992,0.72 -18.576,-3.672 m -45.936,8.712 36.144,-21.456 m -36.144,21.456 1.08,0.288 36.144,-21.384 m -36.144,21.384 1.08,0.504 36.144,-21.456 m -36.144,21.456 0.936,0.72 36.144,-21.456 m -36.144,21.456 0.936,0.792 36.144,-21.384 m -36.144,21.384 0.72,1.008 36.216,-21.384 m -36.216,21.384 0.648,1.152 m 103.032,-0.792 -43.92,-8.712 m 43.92,8.712 -29.88,17.712 m 30.96,-17.424 -1.08,-0.288 m 1.08,0.288 -30.96,18.36 m -73.152,-17.856 36.144,-21.456 m -36.144,21.456 0.504,1.08 m 104.688,-1.08 -1.08,-0.504 m 1.08,0.504 -32.04,19.008 m 32.976,-18.288 -0.936,-0.72 m 0.936,0.72 -32.976,19.512 m -223.488,-19.296 36.144,-21.456 m -36.144,21.456 1.08,0.144 m -1.368,-0.144 -4.104,2.376 m 5.184,-2.304 -5.616,3.384 m 3.744,-3.384 36.144,-21.384 m -36.144,21.384 1.08,-0.072 m 1.08,0.144 143.856,28.368 m -146.376,-28.368 -2.304,1.44 m 154.584,-1.44 36.144,-21.384 m -36.144,21.384 0.288,1.224 m -149.112,-1.08 -7.128,4.248 m 3.024,-4.104 36.144,-21.456 m -36.144,21.456 1.008,-0.36 m 4.464,0.432 -8.208,4.896 m 262.224,-4.752 -0.936,-0.864 m 0.936,0.864 -33.912,20.088 m -226.44,-19.872 36.144,-21.384 m -36.144,21.384 0.864,-0.432 m 153.144,0.792 -113.832,-22.536 m 113.904,22.68 36.144,-21.384 m -36.144,21.384 0.072,1.224 m 36.144,-1.008 v -20.376 m -191.088,20.376 0.792,-0.72 m 261.144,0.72 -0.792,-0.936 m 0.792,0.936 -34.704,20.592 m -227.88,-19.8 0.648,-0.792 m 154.944,1.008 v 20.376 m 66.024,-20.232 -29.88,-5.904 m 71.424,5.904 -0.576,-1.152 m 0.576,1.152 -35.28,20.952 m -36.216,-20.952 0.072,-1.152 m 30.96,1.44 -1.08,-0.288 m -222.048,0.72 0.432,-1.08 m 223.776,1.08 -1.08,-0.432 m -31.32,0.792 0.288,-1.08 m 72,1.152 -0.504,-1.152 m 0.504,1.152 -35.784,21.168 m -3.168,-20.88 -0.936,-0.72 m -224.208,0.864 v 0.288 m -0.288,-0.072 0.288,-1.08 m 0,1.152 v 21.096 m 191.304,-20.88 0.504,-1.008 m 34.272,1.224 -0.936,-0.864 m 39.24,0.864 -0.288,-1.152 m -264.096,1.512 -0.36,0.288 m 191.088,0 0.576,-0.864 m -191.664,0.864 0.072,-1.152 m -0.072,1.152 v 20.304 m 34.344,-20.304 -34.344,20.304 m 35.928,-20.016 -35.856,21.24 m 36.144,-21.168 0.288,1.008 m 190.728,-1.008 -0.792,-1.008 m 38.376,1.224 -0.072,-1.224 m 0.072,1.224 -36.144,21.456 m -38.376,-21.384 0.792,-0.648 m -154.584,1.368 0.432,1.152 m 190.872,-1.08 -0.576,-1.08 m -190.296,2.16 0.648,1.08 m 190.728,-1.008 -0.504,-1.152 m -190.224,2.16 0.792,1.008 m 190.224,-0.792 -0.288,-1.224 m -189.936,2.016 0.864,0.864 m 189.432,-0.432 -0.072,-1.224 m 0.072,1.224 -36.144,21.456 m -153.288,-21.024 1.008,0.648 1.08,0.504 1.08,0.36 m 26.28,-0.216 -6.84,4.032 m 6.912,-4.032 -6.84,4.032 m 7.2,-3.96 -6.84,4.032 m 7.488,-3.888 -6.84,4.032 m -20.52,-4.032 -36.144,21.384 m 64.44,-21.24 -6.84,4.032 m 132.84,3.168 z m -23.4,1.512 -6.552,-1.296 m 42.12,2.16 z m -52.488,0.576 36.144,-21.384 m -36.144,21.384 -0.072,1.152 m 29.952,0 36.144,-21.384 m -36.144,21.384 -12.96,-2.592 m 12.96,2.592 1.08,0.288 m -31.032,-0.288 36.144,-21.384 m -36.144,21.384 -0.288,1.08 m 31.32,-0.792 36.144,-21.384 m -36.144,21.384 1.08,0.504 36.144,-21.456 m -36.144,21.456 0.936,0.72 m -33.336,-0.648 -5.904,3.528 m 5.904,-3.312 36.144,-21.384 m -36.144,21.384 -0.504,1.008 m 33.84,-0.576 36.144,-21.456 m -36.144,21.456 0.936,0.864 m -189.936,-0.792 v 0.144 m 155.304,0.144 -4.464,2.664 m 4.32,-2.448 36.144,-21.384 m -36.144,21.384 -0.648,0.864 m 35.424,-0.576 36.144,-21.456 m -36.144,21.456 0.792,0.936 m 37.512,-0.936 36.144,-21.456 m -36.144,21.456 0.072,1.224 m 36.144,-1.008 v -20.448 m -109.8,20.664 -2.736,1.584 m 2.592,-1.44 36.216,-21.384 m -36.216,21.384 -0.72,0.72 m -154.08,-0.576 -0.072,-1.224 m 191.088,1.44 36.144,-21.384 m -36.144,21.384 0.576,1.08 m -37.44,-0.864 -1.008,0.576 m 75.456,-0.504 v 20.376 m -74.52,-20.304 36.144,-21.456 m -36.144,21.456 -0.936,0.432 m 111.528,-0.432 0.072,-1.08 m -86.4,1.224 -18.504,-3.6 m -6.696,3.888 -0.936,0.288 m -151.92,-0.144 v 42.984 m 0,-42.912 36.144,-21.384 m -36.144,21.384 -0.288,-1.224 m 152.208,1.296 -1.08,0.144 m 40.464,-0.144 36.144,-21.384 m -36.144,21.384 0.504,1.224 m -40.968,-1.08 -1.08,-0.144 m 114.336,0.432 0.288,-1.152 m -263.952,1.8 36.144,-21.384 m -36.144,21.384 -0.432,-1.152 m 191.808,1.296 36.144,-21.456 m -36.144,21.456 0.288,1.152 m 71.496,-1.008 0.504,-0.936 m -263.016,1.8 36.144,-21.456 m -36.144,21.456 -0.648,-1.152 m 191.592,1.152 -13.968,-2.808 m 84.96,2.808 0.576,-0.864 m -71.496,1.008 36.144,-21.384 m -36.144,21.384 0.072,1.296 m 1.728,-1.08 z m 34.416,0 v -20.376 m 33.912,20.736 0.792,-0.72 m -261.144,0.936 36.144,-21.384 m -36.144,21.384 -0.792,-0.936 m 191.088,1.44 v 20.376 m 36.072,-20.304 0.072,-1.152 m -225.576,1.44 36.144,-21.384 m -36.144,21.384 -0.864,-0.864 m 1.872,1.584 36.144,-21.456 m -36.144,21.456 -1.008,-0.72 m 225.216,0.792 0.288,-1.08 m -0.288,1.08 -35.784,21.168 m -187.344,-20.808 36.144,-21.384 m -36.144,21.384 -1.08,-0.432 m 2.16,0.792 -1.08,-0.36 m 1.08,0.36 143.856,28.44 m 77.688,-28.152 0.504,-1.008 m -0.504,1.008 -35.28,20.88 m 34.704,-20.016 0.576,-0.864 m -0.576,0.864 -34.704,20.52 m 33.912,-19.872 0.792,-0.648 m -0.792,0.648 -33.912,20.088 m 31.248,-19.224 z m -187.632,3.24 v 6.048 m 150.12,-4.896 -143.856,-28.44 m 144.936,28.728 -1.08,-0.288 m 2.16,0.792 -1.08,-0.504 m 2.016,1.152 -0.936,-0.648 m 1.872,1.584 -0.936,-0.936 m 1.728,1.872 -0.792,-0.936 m 1.368,2.016 -0.576,-1.08 m -126.576,1.08 -6.912,4.104 m -21.456,-3.6 v 1.008 m 5.184,-0.504 -1.08,0.144 -1.008,0.288 m 3.168,-0.288 -1.08,-0.144 m 1.08,0.144 -36.144,21.384 m 185.904,-21.312 -0.504,-1.224 m -152.424,1.44 -0.864,0.432 m -2.232,-0.36 v 0.864 m 36.144,-0.792 v 5.472 m -33.984,-5.112 v 0.072 m -2.16,0.36 v 0.792 m 156.312,-0.792 -0.288,-1.152 m 36.504,1.368 36.144,-21.384 m -36.144,21.384 -0.072,1.152 m -192.456,-0.576 v 0.072 m 156.384,0.36 -0.072,-1.224 m 0.072,1.224 -36.144,21.456 m 72.216,-21.312 36.144,-21.456 m -36.144,21.456 -0.288,1.08 m -142.344,-0.504 -6.84,4.032 m 149.184,-3.744 -5.904,3.528 m 5.904,-3.312 36.144,-21.384 m -36.144,21.384 -0.504,1.008 m -18.36,-0.288 -6.552,-1.224 m 25.056,1.296 -4.464,2.592 m 4.32,-2.376 36.144,-21.456 m -36.144,21.456 -0.576,0.792 m 0.072,-0.144 -2.736,1.656 m 2.664,-1.512 36.144,-21.384 m -36.144,21.384 -0.792,0.72 m -33.912,-0.288 36.144,-21.456 m -36.144,21.456 -0.072,1.08 m 34.056,-0.864 -1.008,0.576 m 0.936,-0.504 36.144,-21.384 m -36.144,21.384 -0.936,0.504 -0.936,0.288 m -2.16,0 -12.96,-2.592 m 15.12,2.592 -1.08,0.072 m -31.032,-0.072 36.144,-21.384 m -5.112,21.456 -1.08,-0.072 m -113.616,0.72 v 0.288 l -6.48,3.816 m 47.808,4.032 36.144,-21.384 m -36.144,21.384 1.08,0.36 36.144,-21.456 m -36.144,21.456 1.08,0.432 36.144,-21.384 m -36.144,21.384 0.936,0.72 36.144,-21.456 m -36.144,21.456 0.936,0.864 36.144,-21.384 m -36.144,21.384 0.72,1.008 36.216,-21.456 m -36.216,21.456 0.648,1.08 36.144,-21.456 m -36.144,21.456 0.504,1.152 m -150.84,-0.216 36.144,-21.384 m -36.144,21.384 1.08,0.144 m -1.368,-0.072 -4.104,2.376 m 5.184,-2.304 -5.616,3.312 m 3.744,-3.312 36.144,-21.384 m -36.144,21.384 1.08,-0.144 m 1.08,0.144 143.856,28.368 m -146.376,-28.296 -2.304,1.368 m 154.584,-1.368 36.144,-21.384 m -36.144,21.384 0.288,1.224 m -149.112,-1.152 -7.128,4.248 m 3.024,-4.104 36.144,-21.384 m -36.144,21.384 1.008,-0.288 m 4.464,0.432 -8.208,4.896 m 1.872,-4.536 36.144,-21.456 m -36.144,21.456 0.864,-0.504 m 153.144,0.792 -113.832,-22.464 m 113.904,22.68 36.144,-21.456 m -36.144,21.456 0.072,1.224 m 36.144,-1.08 v -20.376 m -191.088,20.376 0.792,-0.648 m -1.44,1.512 0.648,-0.864 m 154.944,1.08 v 20.304 m 36.072,-20.232 0.072,-1.152 m -192.168,1.872 0.432,-1.008 m 191.376,1.368 0.288,-1.08 m -192.096,1.656 v 0.288 m -0.288,-0.144 0.288,-1.08 m 0,1.224 v 46.296 m 191.304,-46.152 0.504,-1.008 m -191.808,1.656 -0.36,0.216 m 191.088,0 0.576,-0.864 m -191.664,0.864 0.072,-1.152 m -0.072,1.152 v 27.216 m 36.144,-26.856 v 0 5.4 m 154.152,-5.04 0.792,-0.72 m -154.944,5.76 -35.784,21.168 m 65.808,-20.664 v 0 l -65.808,39.024 m 265.464,-33.192 v -345.6 m 0,345.6 2.448,0.432 v -345.6 m -111.888,350.352 36.144,-21.384 m -36.144,21.384 -0.072,1.152 36.144,-21.384 m -36.144,21.384 -0.288,1.08 m 0,-0.144 -5.904,3.456 m 5.904,-3.312 36.144,-21.384 m -36.144,21.384 -0.504,1.08 m 0.144,-0.216 -4.464,2.592 m 4.32,-2.376 36.144,-21.456 m -36.144,21.456 -0.648,0.792 m 0.144,-0.144 -2.736,1.656 m 2.592,-1.512 36.216,-21.384 m -36.216,21.384 -0.72,0.72 m 0.072,-0.072 -1.008,0.504 m 0.936,-0.432 36.144,-21.384 m -36.144,21.384 -0.936,0.432 -0.936,0.36 -1.08,0.072 -1.08,-0.144 m -150.12,4.392 0.36,-0.288 m -2.592,17.856 v -345.6 m 2.592,346.104 -2.592,-0.504 m 159.552,31.536 v -345.6 m 0,345.6 108.504,-64.224 m -105.984,64.728 108.432,-64.296 m -108.432,64.296 -2.52,-0.504 m -86.544,-204.912 -6.912,3.96 m 6.912,29.88 -6.912,4.104 m 5.904,-38.088 -6.84,3.96 m 6.192,-4.104 -6.84,3.888 m 6.48,-3.96 -6.84,3.888 m 6.768,-3.888 -6.84,3.888 m -5.976,27.432 -6.84,4.032 m 8.424,-3.744 -6.84,4.032 m 8.568,-3.744 -6.84,4.104 m 8.64,-3.744 -6.84,4.104 m 8.712,-3.672 -6.84,4.032 m 8.64,-3.744 -6.768,4.104 m 8.568,-3.744 -6.84,4.104 m 8.496,-3.672 -6.84,4.032 m 8.208,-3.816 -6.768,4.104"
     style="fill:#1b1918;fill-rule:evenodd;stroke:#1b1918;stroke-width:1.5001;stroke-linecap:butt;stroke-linejoin:miter;stroke-dasharray:none"
     id="path2" />
  <path
     d="m 322.8627,375.6376 143.64,28.224"
     style="fill:none;stroke:#1b1918;stroke-width:0.4997;stroke-linecap:butt;stroke-linejoin:miter;stroke-dasharray:none"
     id="path4" />
  <path
     d="m 466.5027,403.8616 v 33.984 z"
     style="fill:#1b1918;fill-rule:evenodd;stroke:#1b1918;stroke-width:0.4997;stroke-linecap:butt;stroke-linejoin:miter;stroke-dasharray:none"
     id="path6" />
  <path
     d="m 323.0787,409.5496 143.424,28.296"
     style="fill:none;stroke:#1b1918;stroke-width:0.4997;stroke-linecap:butt;stroke-linejoin:miter;stroke-dasharray:none"
     id="path8" />
  <text
     x="475.67679"
     y="432.78891"
     id="text12"
     style="-inkscape-font-specification:'Times New Roman,  Italic';font-family:'Times New Roman';font-weight:normal;font-style:italic;font-stretch:normal;font-variant:normal"><tspan
       font-family="'Times New Roman'"
       font-size="24px"
       fill="#1b1918"
       id="tspan10"
       style="-inkscape-font-specification:'Times New Roman,  Italic';font-family:'Times New Roman';font-weight:normal;font-style:italic;font-stretch:normal;font-variant:normal">p</tspan></text>
  <path
     d="m 466.5027,403.8616 6.048,1.224"
     style="fill:none;stroke:#1b1918;stroke-width:0.4997;stroke-linecap:butt;stroke-linejoin:miter;stroke-dasharray:none"
     id="path14" />
  <path
     d="m 466.5027,437.8456 6.048,1.152"
     style="fill:none;stroke:#1b1918;stroke-width:0.4997;stroke-linecap:butt;stroke-linejoin:miter;stroke-dasharray:none"
     id="path16" />
  <path
     d="m 465.1347,411.9976 h 2.808 l -1.44,-8.136 z"
     style="fill:#1b1918;fill-rule:evenodd;stroke:#1b1918;stroke-width:0.0697;stroke-linecap:butt;stroke-linejoin:miter;stroke-dasharray:none"
     id="path18" />
  <path
     d="m 467.9427,429.7096 h -2.808 l 1.368,8.136 z"
     style="fill:#1b1918;fill-rule:evenodd;stroke:#1b1918;stroke-width:0.0697;stroke-linecap:butt;stroke-linejoin:miter;stroke-dasharray:none"
     id="path20" />
  <path
     d="m 196.7907,192.5416 v -42.336"
     style="fill:none;stroke:#1b1918;stroke-width:0.4997;stroke-linecap:butt;stroke-linejoin:miter;stroke-dasharray:none"
     id="path23" />
  <path
     d="m 196.7907,150.2056 v -3.96"
     style="fill:none;stroke:#1b1918;stroke-width:0.4997;stroke-linecap:butt;stroke-linejoin:miter;stroke-dasharray:none"
     id="path25" />
  <path
     d="m 232.9347,172.8136 v -43.992"
     style="fill:none;stroke:#1b1918;stroke-width:0.4997;stroke-linecap:butt;stroke-linejoin:miter;stroke-dasharray:none"
     id="path27" />
  <path
     d="m 232.9347,128.8216 v -3.96"
     style="fill:none;stroke:#1b1918;stroke-width:0.4997;stroke-linecap:butt;stroke-linejoin:miter;stroke-dasharray:none"
     id="path29" />
  <path
     d="m 204.4947,147.2536 -1.44,-2.376 -6.264,5.328 z"
     style="fill:#1b1918;fill-rule:evenodd;stroke:#1b1918;stroke-width:0.0697;stroke-linecap:butt;stroke-linejoin:miter;stroke-dasharray:none"
     id="path31" />
  <path
     d="m 225.2307,131.7736 1.44,2.376 6.264,-5.328 z"
     style="fill:#1b1918;fill-rule:evenodd;stroke:#1b1918;stroke-width:0.0697;stroke-linecap:butt;stroke-linejoin:miter;stroke-dasharray:none"
     id="path33" />
  <path
     d="m 196.7907,150.2056 36.144,-21.384 z"
     style="fill:#1b1918;fill-rule:evenodd;stroke:#1b1918;stroke-width:0.4997;stroke-linecap:butt;stroke-linejoin:miter;stroke-dasharray:none"
     id="path35" />
  <text
     x="208.76849"
     y="125.7381"
     id="text39"
     style="font-style:italic;font-variant:normal;font-weight:normal;font-stretch:normal;font-size:24px;font-family:'Times New Roman';-inkscape-font-specification:'Times New Roman,  Italic'">l</text>
  <path
     d="m 255.9747,549.8776 v -17.712"
     style="fill:none;stroke:#1b1918;stroke-width:0.4997;stroke-linecap:butt;stroke-linejoin:miter;stroke-dasharray:none"
     id="path42" />
  <path
     d="m 255.9747,532.1656 v -17.28 z"
     style="fill:#1b1918;fill-rule:evenodd;stroke:#1b1918;stroke-width:0.4997;stroke-linecap:butt;stroke-linejoin:miter;stroke-dasharray:none"
     id="path44" />
  <text
     x="249.47009"
     y="571.98358"
     id="text48"
     style="font-size:24px"><tspan
       font-family="'Σψμβολ'"
       font-size="24px"
       fill="#1b1918"
       id="tspan46"
       style="font-style:normal;font-variant:normal;font-weight:normal;font-stretch:normal;font-size:24px;font-family:'Standard Symbols PS';-inkscape-font-specification:'Standard Symbols PS'">d</tspan></text>
  <path
     d="m 254.6787,540.3016 h 2.664 l -1.368,-8.136 z"
     style="fill:#1b1918;fill-rule:evenodd;stroke:#1b1918;stroke-width:0.0697;stroke-linecap:butt;stroke-linejoin:miter;stroke-dasharray:none"
     id="path50" />
  <path
     d="m 257.3427,524.0296 h -2.664 l 1.296,8.136 z"
     style="fill:#1b1918;fill-rule:evenodd;stroke:#1b1918;stroke-width:0.0697;stroke-linecap:butt;stroke-linejoin:miter;stroke-dasharray:none"
     id="path52" />
  <path
     d="m 161.0067,570.8296 v 25.344"
     style="fill:none;stroke:#1b1918;stroke-width:0.4997;stroke-linecap:butt;stroke-linejoin:miter;stroke-dasharray:none"
     id="path54" />
  <path
     d="m 317.9667,601.8616 v 25.344"
     style="fill:none;stroke:#1b1918;stroke-width:0.4997;stroke-linecap:butt;stroke-linejoin:miter;stroke-dasharray:none"
     id="path56" />
  <path
     d="m 161.0067,591.1336 156.96,31.032 z"
     style="fill:#1b1918;fill-rule:evenodd;stroke:#1b1918;stroke-width:0.4997;stroke-linecap:butt;stroke-linejoin:miter;stroke-dasharray:none"
     id="path58" />
  <text
     x="235.1492"
     y="597.57452"
     id="text62"
     style="-inkscape-font-specification:'Times New Roman,  Italic';font-family:'Times New Roman';font-weight:normal;font-style:italic;font-stretch:normal;font-variant:normal"><tspan
       font-family="'Times New Roman'"
       font-size="24px"
       fill="#1b1918"
       id="tspan60"
       style="-inkscape-font-specification:'Times New Roman,  Italic';font-family:'Times New Roman';font-weight:normal;font-style:italic;font-stretch:normal;font-variant:normal">b</tspan></text>
  <path
     d="m 168.7107,594.0856 0.504,-2.736 -8.208,-0.216 z"
     style="fill:#1b1918;fill-rule:evenodd;stroke:#1b1918;stroke-width:0.0697;stroke-linecap:butt;stroke-linejoin:miter;stroke-dasharray:none"
     id="path64" />
  <path
     d="m 310.2627,619.2856 -0.504,2.664 8.208,0.216 z"
     style="fill:#1b1918;fill-rule:evenodd;stroke:#1b1918;stroke-width:0.0697;stroke-linecap:butt;stroke-linejoin:miter;stroke-dasharray:none"
     id="path66" />
  <g
     id="Layer1003">
    <path
       d="m 232.8704,399.6493 2.52,0.504 -13.536,18.072 -2.52,-0.504 z"
       style="fill:#1b1918;fill-rule:evenodd;stroke:#1b1918;stroke-width:0.4997;stroke-linecap:butt;stroke-linejoin:miter;stroke-dasharray:none"
       id="path69" />
    <path
       d="m 222.5024,408.6493 -22.104,15.696 v -10.872 l 22.104,-10.512 -3.168,-5.328 13.536,2.016 -13.536,18.072 z"
       style="fill:#1b1918;fill-rule:evenodd;stroke:#1b1918;stroke-width:0.4997;stroke-linecap:butt;stroke-linejoin:miter;stroke-dasharray:none"
       id="path71" />
    <path
       d="m 219.3344,397.6333 2.52,0.504 13.536,2.016 -2.52,-0.504 z"
       style="fill:#1b1918;fill-rule:evenodd;stroke:#1b1918;stroke-width:0.4997;stroke-linecap:butt;stroke-linejoin:miter;stroke-dasharray:none"
       id="path73" />
    <path
       d="m 225.0944,409.1533 -22.176,15.696 v -10.872 l 22.176,-10.584 -3.24,-5.256 13.536,2.016 -13.536,18.072 z"
       style="fill:#1b1918;fill-rule:evenodd;stroke:#1b1918;stroke-width:0.4997;stroke-linecap:butt;stroke-linejoin:miter;stroke-dasharray:none"
       id="path75" />
    <path
       d="m 219.3344,417.7213 2.52,0.504 3.24,-9.072 -2.592,-0.504 z"
       style="fill:#1b1918;fill-rule:evenodd;stroke:#1b1918;stroke-width:0.4997;stroke-linecap:butt;stroke-linejoin:miter;stroke-dasharray:none"
       id="path77" />
    <path
       d="m 222.5024,408.6493 2.592,0.504 -22.176,15.696 -2.52,-0.504 z"
       style="fill:#1b1918;fill-rule:evenodd;stroke:#1b1918;stroke-width:0.4997;stroke-linecap:butt;stroke-linejoin:miter;stroke-dasharray:none"
       id="path79" />
    <path
       d="m 200.3984,413.4733 2.52,0.504 22.176,-10.584 -2.592,-0.432 z"
       style="fill:#1b1918;fill-rule:evenodd;stroke:#1b1918;stroke-width:0.4997;stroke-linecap:butt;stroke-linejoin:miter;stroke-dasharray:none"
       id="path81" />
    <path
       d="m 222.5024,402.9613 2.592,0.432 -3.24,-5.256 -2.52,-0.504 z"
       style="fill:#1b1918;fill-rule:evenodd;stroke:#1b1918;stroke-width:0.4997;stroke-linecap:butt;stroke-linejoin:miter;stroke-dasharray:none"
       id="path83" />
    <path
       d="m 200.3984,424.3453 2.52,0.504 v -10.872 l -2.52,-0.504 z"
       style="fill:#1b1918;fill-rule:evenodd;stroke:#1b1918;stroke-width:0.4997;stroke-linecap:butt;stroke-linejoin:miter;stroke-dasharray:none"
       id="path85" />
  </g>
  <g
     id="Layer1004">
    <defs
       id="defs91">
      <marker
         id="startMarker1"
         markerUnits="strokeWidth"
         orient="auto"
         markerWidth="8"
         markerHeight="6"
         viewBox="0 0 10 10"
         refX="9"
         refY="5">
        <polyline
           points="10,0 0,5 10,10 9,5"
           fill="solid"
           id="polyline88" />
      </marker>
    </defs>
    <path
       d="M 455.0487,482.2171 V 519.053"
       style="fill:none;stroke:#1b1918;stroke-width:2.0001;stroke-linecap:butt;stroke-linejoin:miter;stroke-dasharray:none;marker-start:url(#startMarker1)"
       id="path93" />
    <defs
       id="defs98">
      <marker
         id="endMarker1"
         markerUnits="strokeWidth"
         orient="auto"
         markerWidth="8"
         markerHeight="6"
         viewBox="0 0 10 10"
         refX="1"
         refY="5">
        <polyline
           points="0,0 10,5 0,10 1,5"
           fill="solid"
           id="polyline95" />
      </marker>
    </defs>
    <path
       d="m 455.05,518.9352 27.6648,-16.3268"
       style="fill:none;stroke:#1b1918;stroke-width:2.0001;stroke-linecap:butt;stroke-linejoin:miter;stroke-dasharray:none;marker-end:url(#endMarker1)"
       id="path100" />
    <defs
       id="defs105">
      <marker
         id="endMarker2"
         markerUnits="strokeWidth"
         orient="auto"
         markerWidth="8"
         markerHeight="6"
         viewBox="0 0 10 10"
         refX="1"
         refY="5">
        <polyline
           points="0,0 10,5 0,10 1,5"
           fill="solid"
           id="polyline102" />
      </marker>
    </defs>
    <path
       d="m 454.9958,518.9846 29.2457,5.9991"
       style="fill:none;stroke:#1b1918;stroke-width:2.0001;stroke-linecap:butt;stroke-linejoin:miter;stroke-dasharray:none;marker-end:url(#endMarker2)"
       id="path107" />
  </g>
  <text
     x="488.4877"
     y="491.3696"
     id="text112"
     style="-inkscape-font-specification:'Times New Roman,  Italic';font-family:'Times New Roman';font-weight:normal;font-style:italic;font-stretch:normal;font-variant:normal"><tspan
       font-family="'Times New Roman'"
       font-size="24px"
       fill="#1b1918"
       id="tspan110"
       style="-inkscape-font-specification:'Times New Roman,  Italic';font-family:'Times New Roman';font-weight:normal;font-style:italic;font-stretch:normal;font-variant:normal">x</tspan></text>
  <text
     x="495.8721"
     y="539.8385"
     id="text116"
     style="-inkscape-font-specification:'Times New Roman,  Italic';font-family:'Times New Roman';font-weight:normal;font-style:italic;font-stretch:normal;font-variant:normal"><tspan
       font-family="'Times New Roman'"
       font-size="24px"
       fill="#1b1918"
       id="tspan114"
       style="-inkscape-font-specification:'Times New Roman,  Italic';font-family:'Times New Roman';font-weight:normal;font-style:italic;font-stretch:normal;font-variant:normal">z</tspan></text>
  <text
     x="445.66711"
     y="465.67389"
     id="text120"
     style="-inkscape-font-specification:'Times New Roman,  Italic';font-family:'Times New Roman';font-weight:normal;font-style:italic;font-stretch:normal;font-variant:normal"><tspan
       font-family="'Times New Roman'"
       font-size="24px"
       fill="#1b1918"
       id="tspan118"
       style="-inkscape-font-specification:'Times New Roman,  Italic';font-family:'Times New Roman';font-weight:normal;font-style:italic;font-stretch:normal;font-variant:normal">y</tspan></text>
</svg>
